- 
http://www.Speed.Cd 
       
http://www.Speed.Cd       the fast  and The Hottest Private Tracker on the net

(((--Registration will be open on june every weekend--)))

Please Seed back to make the speed Faster!!!

------------------nfo--------------------------
-








































          
          
              
              
                    
                    
                    
                    

Bite.Marks.2011.DVDSCR.XviD-SiC

Poster:
[img]http://leetleech.org/images/12258698235971555817.jpg[/img]

IMDB Link:
http://www.imdb.com/title/tt1697878/

Description:
Truck-driver Brewster takes over his missing brother's delivery of a load of coffins to a funeral home. He picks up hitchhiking gay couple Cary and Vogel whose relationship is in trouble to help him stay awake but when his GPS leads them into a deserted junkyard, his truck breaks down, stranding them. NIght falls, and the coffins reveal blood-thirty vampires. Now the mismatched trio must barricade themselves in the cab of the truck and try to survive until dawn...

General
Complete name                    : Bite.Marks.2011.DVDSCR.XviD-SiC.avi
Format                           : AVI
Format/Info                      : Audio Video Interleave
File size                        : 1.00 GiB
Duration                         : 1h 24mn
Overall bit rate                 : 1 699 Kbps
Writing application              : VirtualDubMod 1.5.4.1 (build 2178/release)
Writing library                  : VirtualDub build 32842/release

Video
ID                               : 0
Format                           : MPEG-4 Visual
Format profile                   : Advanced Simple@L5
Format settings, BVOP            : No
Format settings, QPel            : No
Format settings, GMC             : No warppoints
Format settings, Matrix          : Custom
Codec ID                         : XVID
Codec ID/Hint                    : XviD
Duration                         : 1h 24mn
Bit rate                         : 1 497 Kbps
Width                            : 720 pixels
Height                           : 416 pixels
Display aspect ratio             : 16:9
Frame rate                       : 23.976 fps
Color space                      : YUV
Chroma subsampling               : 4:2:0
Bit depth                        : 8 bits
Scan type                        : Progressive
Compression mode                 : Lossy
Bits/(Pixel*Frame)               : 0.208
Stream size                      : 904 MiB (88%)
Writing library                  : XviD 63

Audio
ID                               : 1
Format                           : AC-3
Format/Info                      : Audio Coding 3
Mode extension                   : CM (complete main)
Codec ID                         : 2000
Duration                         : 1h 24mn
Bit rate mode                    : Constant
Bit rate                         : 192 Kbps
Channel(s)                       : 2 channels
Channel positions                : Front: L R
Sampling rate                    : 48.0 KHz
Bit depth                        : 16 bits
Compression mode                 : Lossy
Delay relative to video          : 15ms
Stream size                      : 116 MiB (11%)
Alignment                        : Split accross interleaves
Interleave, duration             : 42 ms (1.00 video frame)
Interleave, preload duration     : 500 ms


Screenshots:
[img]http://leetleech.org/images/61248674206797226598.png[/img]
[img]http://leetleech.org/images/49370390656209645995.png[/img]
[img]http://leetleech.org/images/89274719342406953267.png[/img]
[img]http://leetleech.org/images/53239148169291021662.png[/img]
[img]http://leetleech.org/images/56443774582109018715.png[/img]

Note: N/A

Encoder: thefuzz

Enjoy!

Respects to CaptainHomey, Cyanide, CM8, Rx, Pirate666, THC, ELEKTRI4KA, Killerhz, 
XtremE, PA, YeFsTe and everyone in the struggle...